# This file uses centimeters as units for non-parametric coordinates.

mtllib Chest.mtl
g default
v -4.000000 0.000000 2.000000
v 4.000000 0.000000 2.000000
v -4.000000 3.130449 2.000000
v 4.000000 3.130449 2.000000
v -4.000000 3.130449 -2.000000
v 4.000000 3.130449 -2.000000
v -4.000000 0.000000 -2.000000
v 4.000000 0.000000 -2.000000
v -4.000000 4.527971 0.422410
v 4.000000 4.527971 0.422410
v 4.000000 4.527971 -0.422410
v -4.000000 4.527971 -0.422410
v -4.000000 3.479829 1.851125
v -4.000000 3.829210 1.625977
v -4.000000 4.178591 1.212622
v 4.000000 3.479829 1.851125
v 4.000000 3.829210 1.625977
v 4.000000 4.178591 1.212622
v 4.000000 3.479829 -1.851125
v 4.000000 3.829210 -1.625977
v 4.000000 4.178591 -1.212622
v -4.000000 3.479829 -1.851125
v -4.000000 3.829210 -1.625977
v -4.000000 4.178591 -1.212622
v -4.000000 4.385972 0.905657
v 4.000000 4.385972 0.905657
v 4.000000 4.385972 -0.905657
v -4.000000 4.385972 -0.905657
vt 0.015823 0.015925
vt 0.515335 0.015925
vt 0.515335 0.222463
vt 0.015823 0.222463
vt 0.331970 0.988678
vt 0.013150 0.988678
vt 0.013150 0.750851
vt 0.331970 0.750851
vt 0.016089 0.235399
vt 0.515601 0.235399
vt 0.515601 0.441938
vt 0.016089 0.441938
vt 0.338805 0.750787
vt 0.657625 0.750787
vt 0.657625 0.988615
vt 0.338805 0.988615
vt 0.017779 0.465934
vt 0.515272 0.465934
vt 0.515272 0.733378
vt 0.017779 0.733378
vt 0.669673 0.881129
vt 0.993623 0.881129
vt 0.981566 0.909352
vt 0.963332 0.937574
vt 0.929856 0.965797
vt 0.904995 0.982549
vt 0.865858 0.994020
vt 0.797438 0.994020
vt 0.758302 0.982549
vt 0.733441 0.965797
vt 0.699965 0.937574
vt 0.681730 0.909352
vt 0.669040 0.699658
vt 0.992990 0.699798
vt 0.980921 0.728015
vt 0.962675 0.756230
vt 0.929186 0.784438
vt 0.904318 0.801180
vt 0.865177 0.812634
vt 0.796757 0.812605
vt 0.757625 0.801117
vt 0.732772 0.784354
vt 0.699307 0.756117
vt 0.681085 0.727886
vt 0.850703 0.007021
vt 0.850446 0.509096
vt 0.798046 0.509105
vt 0.798287 0.006976
vt 0.986987 0.006952
vt 0.987553 0.509020
vt 0.964000 0.509039
vt 0.938222 0.509057
vt 0.904655 0.509076
vt 0.881680 0.509086
vt 0.881111 0.007054
vt 0.904087 0.007031
vt 0.937654 0.006999
vt 0.963434 0.006975
vt 0.660899 0.509073
vt 0.661126 0.006873
vt 0.684687 0.006890
vt 0.710474 0.006908
vt 0.744053 0.006933
vt 0.767037 0.006950
vt 0.766802 0.509107
vt 0.743821 0.509104
vt 0.710244 0.509096
vt 0.684458 0.509086
vn 0.000000 0.000000 1.000000
vn 0.000000 0.000000 1.000000
vn 0.000000 0.000000 1.000000
vn 0.000000 0.000000 1.000000
vn 0.000000 0.935023 0.354588
vn 0.000000 0.935023 0.354588
vn -0.000000 0.935023 -0.354588
vn -0.000000 0.935023 -0.354588
vn 0.000000 0.000000 -1.000000
vn 0.000000 0.000000 -1.000000
vn 0.000000 0.000000 -1.000000
vn 0.000000 0.000000 -1.000000
vn 0.000000 -1.000000 0.000000
vn 0.000000 -1.000000 0.000000
vn 0.000000 -1.000000 0.000000
vn 0.000000 -1.000000 0.000000
vn 1.000000 0.000000 0.000000
vn 1.000000 0.000000 0.000000
vn 1.000000 -0.000000 0.000000
vn 1.000000 -0.000000 0.000000
vn -1.000000 0.000000 0.000000
vn -1.000000 0.000000 0.000000
vn -1.000000 -0.000000 0.000000
vn -1.000000 -0.000000 0.000000
vn 0.000000 0.748534 0.663096
vn 0.000000 0.748534 0.663096
vn 0.000000 0.748534 0.663096
vn 0.000000 0.748534 0.663096
vn 0.000000 0.748534 0.663096
vn 0.000000 0.748534 0.663096
vn 0.000000 0.748534 0.663096
vn 0.000000 0.748534 0.663096
vn 0.000000 0.748534 0.663096
vn 0.000000 0.748534 0.663096
vn 1.000000 -0.000000 0.000000
vn 1.000000 -0.000000 0.000000
vn 1.000000 -0.000000 0.000000
vn 1.000000 -0.000000 0.000000
vn 1.000000 -0.000000 0.000000
vn 1.000000 -0.000000 0.000000
vn 1.000000 -0.000000 0.000000
vn 1.000000 -0.000000 0.000000
vn 1.000000 -0.000000 0.000000
vn 1.000000 -0.000000 0.000000
vn -0.000000 0.748534 -0.663096
vn -0.000000 0.748534 -0.663096
vn -0.000000 0.748534 -0.663096
vn -0.000000 0.748534 -0.663096
vn -0.000000 0.748534 -0.663096
vn -0.000000 0.748534 -0.663096
vn -0.000000 0.748534 -0.663096
vn -0.000000 0.748534 -0.663096
vn -0.000000 0.748534 -0.663096
vn -0.000000 0.748534 -0.663096
vn -1.000000 -0.000000 0.000000
vn -1.000000 -0.000000 0.000000
vn -1.000000 -0.000000 0.000000
vn -1.000000 -0.000000 0.000000
vn -1.000000 -0.000000 0.000000
vn -1.000000 -0.000000 0.000000
vn -1.000000 -0.000000 0.000000
vn -1.000000 -0.000000 0.000000
vn -1.000000 -0.000000 0.000000
vn -1.000000 -0.000000 0.000000
s off
g pCube2
usemtl lambert5SG
f 1/1/1 2/2/2 4/3/3 3/4/4
s 1
f 9/45/5 10/46/6 11/47/7 12/48/8
s off
f 5/9/9 6/10/10 8/11/11 7/12/12
f 7/17/13 8/18/14 2/19/15 1/20/16
s 2
f 2/13/17 8/14/18 6/15/19 4/16/20
s 3
f 7/5/21 1/6/22 3/7/23 5/8/24
s 1
f 3/49/25 4/50/26 16/51/27 17/52/28 18/53/29 26/54/30 10/46/6 9/45/5 25/55/31 15/56/32 14/57/33 13/58/34
s 2
f 4/21/20 6/22/19 19/23/35 20/24/36 21/25/37 27/26/38 11/27/39 10/28/40 26/29/41 18/30/42 17/31/43 16/32/44
s 1
f 6/59/45 5/60/46 22/61/47 23/62/48 24/63/49 28/64/50 12/48/8 11/47/7 27/65/51 21/66/52 20/67/53 19/68/54
s 3
f 5/33/24 3/34/23 13/35/55 14/36/56 15/37/57 25/38/58 9/39/59 12/40/60 28/41/61 24/42/62 23/43/63 22/44/64
